<svg width="16" height="12" viewBox="0 0 16 12" fill="none" xmlns="http://www.w3.org/2000/svg">
<path d="M15.6633 2.13665C15.5706 1.8045 15.3938 1.50187 15.15 1.25802C14.9061 1.01417 14.6035 0.837355 14.2713 0.744654C13.0247 0.410654 8.00732 0.410654 8.00732 0.410654C8.00732 0.410654 3.00265 0.403987 1.74332 0.744654C1.41116 0.837355 1.10853 1.01417 0.864684 1.25802C0.620837 1.50187 0.444018 1.8045 0.351318 2.13665C0.114998 3.41299 -0.00150848 4.70863 0.00331782 6.00665C-0.00059609 7.29978 0.115907 8.59046 0.351318 9.86199C0.444018 10.1941 0.620837 10.4968 0.864684 10.7406C1.10853 10.9845 1.41116 11.1613 1.74332 11.254C2.98865 11.5887 8.00732 11.5887 8.00732 11.5887C8.00732 11.5887 13.0113 11.5887 14.2713 11.254C14.6035 11.1613 14.9061 10.9845 15.15 10.7406C15.3938 10.4968 15.5706 10.1941 15.6633 9.86199C15.8938 8.59 16.0054 7.29932 15.9967 6.00665C16.0063 4.70909 15.8947 3.41346 15.6633 2.13665ZM6.40598 8.40065V3.60532L10.582 6.00665L6.40598 8.40065Z" fill="#BDBDBD"/>
</svg>
